<svg id="Calque_1" data-name="Calque 1" xmlns="http://www.w3.org/2000/svg" viewBox="0 0 707.97 185.71"><defs><style>.cls-1{fill:#1d1d1b;}</style></defs><path class="cls-1" d="M137,340.41a50.88,50.88,0,0,1-27.13-7.47,54.32,54.32,0,0,1-19.4-20.56q-7.22-13.1-7.21-29.84a61.88,61.88,0,0,1,6.84-29.31,52.7,52.7,0,0,1,19-20.57q12.13-7.57,27.93-7.58a54.86,54.86,0,0,1,19.61,3.5,44.56,44.56,0,0,1,15.69,9.86v-10H211V337H172.27V325.78a54.51,54.51,0,0,1-16.54,10.92A48.33,48.33,0,0,1,137,340.41Zm11.66-32.75a24.44,24.44,0,0,0,12.67-3.29,23,23,0,0,0,8.64-8.9A26.08,26.08,0,0,0,173,282.75,25.26,25.26,0,0,0,169.83,270a24.23,24.23,0,0,0-8.64-8.86,24,24,0,0,0-12.56-3.28A24.07,24.07,0,0,0,127.27,270,25.09,25.09,0,0,0,124,282.75a25.39,25.39,0,0,0,3.18,12.72,23.77,23.77,0,0,0,8.74,8.9A24.47,24.47,0,0,0,148.63,307.66Z" transform="translate(-83.23 -154.7)"/><path class="cls-1" d="M291.2,340.41A50.51,50.51,0,0,1,264.44,333a53.76,53.76,0,0,1-19.35-20.4q-7.22-13-7.21-29.89,0-16.54,7.05-29.52a54.2,54.2,0,0,1,19.24-20.57,51.91,51.91,0,0,1,28-7.58,53.3,53.3,0,0,1,19.35,3.5,43.77,43.77,0,0,1,15.42,9.86V154.7h38.69V337H326.92V325.78a53.28,53.28,0,0,1-16.48,10.82A49.65,49.65,0,0,1,291.2,340.41Zm11.87-32.75a24.67,24.67,0,0,0,12.78-3.29,23.51,23.51,0,0,0,8.69-8.85A25.25,25.25,0,0,0,327.66,283a26.06,26.06,0,0,0-3.18-13,23.39,23.39,0,0,0-8.69-8.91,24.5,24.5,0,0,0-12.61-3.23,23.79,23.79,0,0,0-21.25,12.24,27.42,27.42,0,0,0-.11,25.65,22.77,22.77,0,0,0,8.64,8.75A24.77,24.77,0,0,0,303.07,307.66Z" transform="translate(-83.23 -154.7)"/><path class="cls-1" d="M445.85,340.41A50.51,50.51,0,0,1,419.09,333a53.76,53.76,0,0,1-19.35-20.4q-7.2-13-7.21-29.89,0-16.54,7.05-29.52a54.2,54.2,0,0,1,19.24-20.57,52,52,0,0,1,28-7.58,53.28,53.28,0,0,1,19.34,3.5,43.9,43.9,0,0,1,15.43,9.86V154.7h38.68V337H481.58V325.78a53.44,53.44,0,0,1-16.49,10.82A49.62,49.62,0,0,1,445.85,340.41Zm11.87-32.75a24.67,24.67,0,0,0,12.78-3.29,23.51,23.51,0,0,0,8.69-8.85A25.25,25.25,0,0,0,482.32,283a26.06,26.06,0,0,0-3.18-13,23.46,23.46,0,0,0-8.69-8.91,24.56,24.56,0,0,0-12.62-3.23,23.79,23.79,0,0,0-21.25,12.24,27.42,27.42,0,0,0-.11,25.65,22.91,22.91,0,0,0,8.64,8.75A24.77,24.77,0,0,0,457.72,307.66Z" transform="translate(-83.23 -154.7)"/><path class="cls-1" d="M575.28,205.47a22.42,22.42,0,0,1-22.69-22.57,21.88,21.88,0,0,1,3-11.35,23.12,23.12,0,0,1,8.22-8.16,22.05,22.05,0,0,1,11.45-3.07,21.28,21.28,0,0,1,11.23,3.07,23.53,23.53,0,0,1,8.16,8.22,22.42,22.42,0,0,1,0,22.68,23,23,0,0,1-8.16,8.16A21.51,21.51,0,0,1,575.28,205.47ZM555.88,337V228.48h38.69V337Z" transform="translate(-83.23 -154.7)"/><path class="cls-1" d="M661.88,340.41a81.09,81.09,0,0,1-25-3.6,50.24,50.24,0,0,1-18.76-10.6l15.69-26.4a63.63,63.63,0,0,0,14.47,9.07A34.28,34.28,0,0,0,662,312a14.6,14.6,0,0,0,5.25-.84,6.6,6.6,0,0,0,3.29-2.6,7.87,7.87,0,0,0,1.11-4.29,6.9,6.9,0,0,0-2.07-5.25,22.38,22.38,0,0,0-6.57-3.87q-4.5-1.9-11.71-4.88a104.56,104.56,0,0,1-12.4-6.36,29.77,29.77,0,0,1-9.49-8.9q-3.66-5.4-3.66-13.67a30.79,30.79,0,0,1,6-18.77,39.63,39.63,0,0,1,16.7-12.72A62.06,62.06,0,0,1,673,225.3a81.1,81.1,0,0,1,17.06,2,154.35,154.35,0,0,1,20.36,6.09L698,258.58q-15-7.42-24.59-7.42a14.78,14.78,0,0,0-8,1.86,5.52,5.52,0,0,0-2.92,4.82q0,3.07,4,5.67a47.71,47.71,0,0,0,9.33,4.61q5.34,2,9.8,3.5A80.83,80.83,0,0,1,699.19,278a26.86,26.86,0,0,1,9.54,9.49q3.49,5.88,3.5,15.42,0,12.19-5.89,20.51t-17.11,12.67Q678,340.41,661.88,340.41Z" transform="translate(-83.23 -154.7)"/><path class="cls-1" d="M766.39,340.41a24.42,24.42,0,0,1-12.66-3.34,24.87,24.87,0,0,1-9-9,24.44,24.44,0,0,1-3.34-12.66,24,24,0,0,1,3.34-12.51,25,25,0,0,1,9-9,25.38,25.38,0,0,1,25.17,0,25.3,25.3,0,0,1,9,9,24.05,24.05,0,0,1,3.34,12.51,24.54,24.54,0,0,1-3.34,12.66,25.12,25.12,0,0,1-9,9A24,24,0,0,1,766.39,340.41Z" transform="translate(-83.23 -154.7)"/></svg>